PathFileType	4	(X/Y/Z)	D:\TRACE\spotREDO_2-26-24\spot_Both_Motion_3_6-platform.trc
DataRate	CameraRate	NumFrames	NumMarkers	Units	OrigDataRate	OrigDataStartFrame	OrigNumFrames
100.00	100.00	      36	5	mm	100.00	2626	      7000
Frame#	Time	Left_Front			Right_Front			Left_Aft			Right_Aft			Post			
		X1	Y1	Z1	X2	Y2	Z2	X3	Y3	Z3	X4	Y4	Z4	X5	Y5	Z5	

2626	26.250	-701.73969	67.10909	-552.73798	713.38354	66.14906	-468.51285	-772.22113	-71.90380	657.77496	796.85779	-64.72043	663.23340	-7.69530	737.89355	-880.94690	
2627	26.260	-701.72479	67.00697	-552.82001	713.36212	66.02599	-468.44901	-772.18988	-71.85416	657.77753	796.76703	-64.59470	663.13538	-7.69574	737.67340	-881.21381	
2628	26.270	-701.73071	66.86904	-552.89142	713.36798	65.91799	-468.51419	-772.16254	-71.80535	657.82458	796.74622	-64.44815	663.09436	-7.72908	737.32318	-881.65497	
2629	26.280	-701.66174	66.70751	-552.95416	713.39111	65.74657	-468.54980	-772.22949	-71.61617	657.84485	796.67145	-64.35935	662.98267	-7.41857	737.12036	-881.86444	
2630	26.290	-701.63348	66.58738	-553.02295	713.36389	65.62682	-468.59277	-772.37939	-71.41879	657.72882	796.62927	-64.25870	662.97266	-7.42360	736.94373	-882.03723	
2631	26.300	-701.65161	66.50387	-553.03833	713.32349	65.41985	-468.59793	-772.45599	-71.07747	657.62524	796.56976	-64.12800	662.91827	-7.48284	736.68103	-882.28979	
2632	26.310	-701.62646	66.34711	-553.07544	713.13397	65.35483	-468.74667	-772.46942	-70.86510	657.59070	796.60913	-63.91520	662.87549	-7.76481	736.38635	-882.64667	
2633	26.320	-701.60077	66.21903	-553.14728	713.16809	65.13241	-468.79623	-772.47095	-70.71106	657.54089	796.68390	-63.77967	662.88794	-7.98875	736.10718	-882.99371	
2634	26.330	-701.56421	66.09505	-553.22632	713.15625	64.92435	-468.82846	-772.43500	-70.43350	657.46667	796.75842	-63.67767	662.88550	-7.77278	735.91248	-883.24133	
2635	26.340	-701.70898	65.85314	-553.21082	713.17853	64.78291	-468.94205	-772.28906	-70.07979	657.47601	796.76270	-63.56638	662.88867	-7.70943	735.59784	-883.55408	
2636	26.350	-701.74658	65.61980	-553.22754	713.20508	64.69091	-469.14822	-772.33728	-69.78852	657.46240	796.79193	-63.32196	662.80902	-7.47717	735.16888	-884.10309	
2637	26.360	-701.83722	65.33166	-553.27893	713.19299	64.63419	-469.16623	-772.36127	-69.54485	657.49908	796.78973	-63.09563	662.80243	-7.50567	735.01074	-884.21051	
2638	26.370	-701.81915	65.03548	-553.36060	713.12067	64.46240	-469.32678	-772.39844	-69.35979	657.50879	796.84369	-62.85460	662.82196	-7.51660	734.75836	-884.34613	
2639	26.380	-701.80981	64.76250	-553.41162	713.13397	64.04036	-469.42395	-772.44507	-69.20692	657.46576	796.84204	-62.46351	662.85962	-7.64216	734.42053	-884.56476	
2640	26.390	-701.81738	64.54710	-553.51648	713.04822	63.94807	-469.53394	-772.41699	-69.09329	657.41309	796.77979	-62.17840	662.79474	-8.00505	733.97217	-884.87927	
2641	26.400	-701.65381	64.27244	-553.60596	713.13525	63.90607	-469.54282	-772.44012	-68.89859	657.33179	796.87604	-61.60209	662.74384	-7.77074	733.41040	-885.05316	
2642	26.410	-701.53705	64.14196	-553.75537	713.19348	63.80311	-469.59824	-772.40887	-68.58188	657.35901	796.70654	-61.33673	662.65643	-7.53345	732.96393	-885.48285	
2643	26.420	-701.47931	64.04486	-553.82379	713.15460	63.67942	-469.83774	-772.35437	-68.13992	657.28961	796.66400	-61.27645	662.59967	-7.58434	732.65570	-885.98218	
2644	26.430	-701.46783	63.84659	-553.92767	713.21301	63.38419	-469.95145	-772.35052	-67.80935	657.21442	796.70306	-61.18414	662.47321	-7.64840	732.44189	-886.41077	
2645	26.440	-701.45111	63.52493	-554.10889	713.17950	63.07995	-470.11734	-772.31219	-67.49944	657.12976	796.74457	-61.00079	662.42322	-7.74653	732.06897	-886.92023	
2646	26.450	-701.53143	63.21456	-554.27142	713.25372	62.83120	-470.15765	-772.22894	-67.26142	657.07410	796.92975	-60.82761	662.44348	-7.81362	731.42401	-887.43665	
2647	26.460	-701.47540	62.94933	-554.47437	713.38318	62.41418	-470.11911	-772.24622	-66.99095	657.08612	796.96570	-60.52828	662.33380	-7.55734	730.98492	-887.94452	
2648	26.470	-701.45721	62.64346	-554.62030	713.59192	62.26411	-470.01624	-772.32007	-66.68846	657.07806	796.96558	-60.04538	662.30157	-7.79882	730.64520	-888.64801	
2649	26.480	-701.40637	62.37769	-554.72223	713.34106	62.14960	-470.42288	-772.33807	-66.41009	657.05212	796.85004	-59.70765	662.22260	-7.61956	730.38434	-889.00690	
2650	26.490	-701.18744	61.96469	-554.94012	713.39966	61.87355	-470.36975	-772.30646	-66.19625	656.96838	796.82794	-59.24706	662.24548	-7.56682	729.90222	-889.43982	
2651	26.500	-701.03345	61.66114	-555.10974	713.42535	61.61747	-470.49362	-772.26160	-65.93583	656.95416	796.97290	-58.58955	662.39960	-7.53726	729.39545	-889.79346	
2652	26.510	-701.08807	61.55940	-555.12061	713.41809	61.35986	-470.47488	-772.21924	-65.57834	656.82874	796.81903	-58.35686	662.43176	-7.55573	729.09491	-890.10168	
2653	26.520	-701.17377	61.41518	-555.20740	713.41028	61.09088	-470.66849	-772.22595	-65.10255	656.83002	796.75732	-58.29856	662.42883	-7.75697	728.59979	-890.56854	
2654	26.530	-701.22943	61.22230	-555.29169	713.39868	60.75165	-470.75699	-772.07294	-64.64226	656.85046	796.81635	-58.23948	662.38983	-7.67812	728.32568	-890.82581	
2655	26.540	-701.26794	60.92727	-555.38171	713.37646	60.53815	-470.86487	-772.14282	-64.65629	656.75494	796.88647	-58.05078	662.33386	-7.42262	727.85052	-891.18506	
2656	26.550	-701.29456	60.60653	-555.41321	713.36389	60.39544	-470.93405	-772.12592	-64.40703	656.79608	796.95483	-57.71600	662.12769	-7.78751	727.22296	-891.62842	
2657	26.560	-701.31445	60.27238	-555.44995	713.31970	60.31208	-471.00198	-771.99609	-64.04149	656.83258	796.88947	-57.30995	661.89160	-7.38627	726.65894	-891.69305	
2658	26.570	-701.33484	59.93615	-555.46521	713.29138	60.15329	-471.10516	-772.07947	-63.73124	656.69714	796.90814	-57.02214	661.78760	-7.43498	726.28485	-892.11792	
2659	26.580	-701.33423	59.64981	-555.47418	713.44708	59.81903	-471.14828	-772.03778	-63.48528	656.70959	796.82971	-56.73225	661.75366	-7.59357	726.01941	-892.87689	
2660	26.590	-701.27655	59.32704	-555.59863	713.47003	59.57420	-471.31586	-771.94135	-63.07426	656.75305	796.80579	-56.26383	661.85938	-7.33191	725.56610	-893.38025	
2661	26.600	-701.24072	59.07985	-555.78772	713.61145	59.08053	-471.30460	-772.18225	-62.79541	656.51672	796.92188	-55.79814	661.98157	-7.37118	724.94257	-893.88605	
